<svg width="1728" height="1117" viewBox="0 0 1728 1117" fill="none" xmlns="http://www.w3.org/2000/svg">
<g clip-path="url(#clip0_57_34)">
<rect width="1728" height="1117" fill="url(#paint0_linear_57_34)"/>
<ellipse cx="1217.46" cy="689.295" rx="538" ry="399.5" transform="rotate(-27.7587 1217.46 689.295)" fill="#645895"/>
<ellipse cx="1174.89" cy="621.297" rx="538" ry="399.5" transform="rotate(-27.7587 1174.89 621.297)" fill="#796CB1"/>
<ellipse cx="1144.15" cy="562.892" rx="538" ry="399.5" transform="rotate(-27.7587 1144.15 562.892)" fill="url(#paint1_linear_57_34)"/>
<ellipse cx="636.571" cy="692.937" rx="538" ry="399.5" transform="rotate(24.5696 636.571 692.937)" fill="#645895"/>
<ellipse cx="877.7" cy="621.073" rx="538" ry="399.5" transform="rotate(30.0206 877.7 621.073)" fill="#796CB1"/>
<ellipse cx="942.923" cy="620.216" rx="538" ry="399.5" transform="rotate(2.3491 942.923 620.216)" fill="url(#paint2_linear_57_34)"/>
</g>
<defs>
<linearGradient id="paint0_linear_57_34" x1="864" y1="0" x2="864" y2="1117" gradientUnits="userSpaceOnUse">
<stop stop-color="#85BFA9"/>
<stop offset="1" stop-color="#635294"/>
</linearGradient>
<linearGradient id="paint1_linear_57_34" x1="1144.15" y1="163.392" x2="1144.15" y2="962.392" gradientUnits="userSpaceOnUse">
<stop stop-color="#81B4A6"/>
<stop offset="1" stop-color="#8C7EC7"/>
</linearGradient>
<linearGradient id="paint2_linear_57_34" x1="942.923" y1="220.716" x2="942.923" y2="1019.72" gradientUnits="userSpaceOnUse">
<stop stop-color="#81B4A6"/>
<stop offset="1" stop-color="#8C7EC7"/>
</linearGradient>
<clipPath id="clip0_57_34">
<rect width="1728" height="1117" fill="white"/>
</clipPath>
</defs>
</svg>
